<?xml version="1.0" standalone="no"?><!DOCTYPE svg PUBLIC "-//W3C//DTD SVG 1.1//EN" "http://www.w3.org/Graphics/SVG/1.1/DTD/svg11.dtd"><svg t="1666247306829" class="icon" viewBox="0 0 1024 1024" version="1.1" xmlns="http://www.w3.org/2000/svg" p-id="5406" xmlns:xlink="http://www.w3.org/1999/xlink" width="200" height="200"><path d="M512 1024c-56.096-89.344-97.184-137.728-123.296-145.184C201.216 825.248 64 652.672 64 448 64 200.576 264.576 0 512 0s448 200.576 448 448c0 203.168-135.232 374.72-320.608 429.632-26.88 7.968-69.376 56.768-127.392 146.368z m0-960C299.904 64 128 235.904 128 448s171.904 384 384 384 384-171.904 384-384S724.096 64 512 64z m-64.992 664.64a288.096 288.096 0 0 1-215.616-345.76 288.096 288.096 0 0 1 215.616 345.76zM269.088 293.248A287.776 287.776 0 0 1 512 160c102.08 0 191.776 53.12 242.944 133.248C683.68 318.368 600.64 332.8 512 332.8c-88.64 0-171.68-14.4-242.944-39.552zM576.96 728.64a288.64 288.64 0 0 1-7.392-65.12c0-136.704 95.264-251.2 223.008-280.64a288.096 288.096 0 0 1-215.616 345.76z" p-id="5407"></path></svg>